<svg xmlns="http://www.w3.org/2000/svg" viewBox="0 0 100 100"><rect width="100" height="100" fill="#8F98A5"/><g id="c"><rect x="0" y="0" width="14" height="14" rx="2" fill="#C7CDD6"/><path d="M0 0h14v2H2v12H0z" fill="#EEF1F5"/><path d="M14 0v14H0v-2h12V0z" fill="#8F98A5"/></g><g><use href="#c" x="8" y="8"/><use href="#c" x="24" y="8"/><use href="#c" x="40" y="8"/><use href="#c" x="56" y="8"/><use href="#c" x="72" y="8"/><use href="#c" x="8" y="24"/><use href="#c" x="72" y="24"/><use href="#c" x="8" y="40"/><use href="#c" x="72" y="40"/><use href="#c" x="8" y="56"/><use href="#c" x="72" y="56"/><use href="#c" x="8" y="72"/><use href="#c" x="24" y="72"/><use href="#c" x="40" y="72"/><use href="#c" x="56" y="72"/><use href="#c" x="72" y="72"/></g><g fill="#DEE2E8"><rect x="24" y="24" width="46" height="46" rx="2"/></g><g font-family="'IBM Plex Mono', Menlo, monospace" font-size="10" font-weight="700" text-anchor="middle"><text x="31" y="35" fill="#2B63C9">1</text><text x="47" y="35" fill="#2E8B3D">2</text><text x="63" y="35" fill="#2B63C9">1</text><text x="31" y="51" fill="#2B63C9">1</text><text x="63" y="51" fill="#D33B2F">3</text><text x="31" y="67" fill="#2E8B3D">2</text><text x="47" y="67" fill="#D33B2F">3</text><text x="63" y="67" fill="#2B63C9">1</text></g><g><path d="M45 41 l7 3 -7 3z" fill="#D33B2F"/><rect x="44" y="41" width="1.5" height="12" fill="#1B2028"/></g><g><path d="M77 25 l7 3 -7 3z" fill="#2B63C9"/><rect x="76" y="25" width="1.5" height="12" fill="#1B2028"/></g></svg>
